<?xml version="1.0" encoding="UTF-8" standalone="no"?>
<!DOCTYPE svg PUBLIC "-//W3C//DTD SVG 1.1//EN"
 "http://www.w3.org/Graphics/SVG/1.1/DTD/svg11.dtd">
<!-- Generated by graphviz version 14.1.1 (20251213.1925)
 -->
<!-- Title: InheritanceTree Pages: 1 -->
<svg width="477pt" height="717pt"
 viewBox="0.00 0.00 477.00 717.00" xmlns="http://www.w3.org/2000/svg" xmlns:xlink="http://www.w3.org/1999/xlink">
<g id="graph0" class="graph" transform="scale(1 1) rotate(0) translate(4 712.5)">
<title>InheritanceTree</title>
<polygon fill="white" stroke="none" points="-4,4 -4,-712.5 472.5,-712.5 472.5,4 -4,4"/>
<text xml:space="preserve" text-anchor="middle" x="234.25" y="-7.2" font-family="Times New Roman,serif" font-size="14.00">simple_pdf &#45; Inheritance Hierarchy</text>
<!-- SIMPLE_PDF -->
<g id="node1" class="node">
<title>SIMPLE_PDF</title>
<path fill="none" stroke="black" d="M139.75,-60.5C139.75,-60.5 67.5,-60.5 67.5,-60.5 61.5,-60.5 55.5,-54.5 55.5,-48.5 55.5,-48.5 55.5,-36.5 55.5,-36.5 55.5,-30.5 61.5,-24.5 67.5,-24.5 67.5,-24.5 139.75,-24.5 139.75,-24.5 145.75,-24.5 151.75,-30.5 151.75,-36.5 151.75,-36.5 151.75,-48.5 151.75,-48.5 151.75,-54.5 145.75,-60.5 139.75,-60.5"/>
<text xml:space="preserve" text-anchor="middle" x="103.62" y="-37.45" font-family="Times New Roman,serif" font-size="14.00">SIMPLE_PDF</text>
</g>
<!-- SIMPLE_PDF_DOCUMENT -->
<g id="node2" class="node">
<title>SIMPLE_PDF_DOCUMENT</title>
<path fill="none" stroke="black" d="M181.75,-132.5C181.75,-132.5 25.5,-132.5 25.5,-132.5 19.5,-132.5 13.5,-126.5 13.5,-120.5 13.5,-120.5 13.5,-108.5 13.5,-108.5 13.5,-102.5 19.5,-96.5 25.5,-96.5 25.5,-96.5 181.75,-96.5 181.75,-96.5 187.75,-96.5 193.75,-102.5 193.75,-108.5 193.75,-108.5 193.75,-120.5 193.75,-120.5 193.75,-126.5 187.75,-132.5 181.75,-132.5"/>
<text xml:space="preserve" text-anchor="middle" x="103.62" y="-109.45" font-family="Times New Roman,serif" font-size="14.00">SIMPLE_PDF_DOCUMENT</text>
</g>
<!-- SIMPLE_PDF_ENGINE -->
<g id="node3" class="node">
<title>SIMPLE_PDF_ENGINE</title>
<path fill="none" stroke="black" d="M456.5,-240.5C456.5,-240.5 327.25,-240.5 327.25,-240.5 321.25,-240.5 315.25,-234.5 315.25,-228.5 315.25,-228.5 315.25,-216.5 315.25,-216.5 315.25,-210.5 321.25,-204.5 327.25,-204.5 327.25,-204.5 456.5,-204.5 456.5,-204.5 462.5,-204.5 468.5,-210.5 468.5,-216.5 468.5,-216.5 468.5,-228.5 468.5,-228.5 468.5,-234.5 462.5,-240.5 456.5,-240.5"/>
<text xml:space="preserve" text-anchor="middle" x="391.88" y="-217.45" font-family="Times New Roman,serif" font-size="14.00">SIMPLE_PDF_ENGINE</text>
</g>
<!-- SIMPLE_PDF_ENGINES -->
<g id="node4" class="node">
<title>SIMPLE_PDF_ENGINES</title>
<path fill="none" stroke="black" d="M172,-348.5C172,-348.5 35.25,-348.5 35.25,-348.5 29.25,-348.5 23.25,-342.5 23.25,-336.5 23.25,-336.5 23.25,-324.5 23.25,-324.5 23.25,-318.5 29.25,-312.5 35.25,-312.5 35.25,-312.5 172,-312.5 172,-312.5 178,-312.5 184,-318.5 184,-324.5 184,-324.5 184,-336.5 184,-336.5 184,-342.5 178,-348.5 172,-348.5"/>
<text xml:space="preserve" text-anchor="middle" x="103.62" y="-325.45" font-family="Times New Roman,serif" font-size="14.00">SIMPLE_PDF_ENGINES</text>
</g>
<!-- SIMPLE_PDF_READER -->
<g id="node5" class="node">
<title>SIMPLE_PDF_READER</title>
<path fill="none" stroke="black" d="M170.12,-420.5C170.12,-420.5 37.12,-420.5 37.12,-420.5 31.12,-420.5 25.12,-414.5 25.12,-408.5 25.12,-408.5 25.12,-396.5 25.12,-396.5 25.12,-390.5 31.12,-384.5 37.12,-384.5 37.12,-384.5 170.12,-384.5 170.12,-384.5 176.12,-384.5 182.12,-390.5 182.12,-396.5 182.12,-396.5 182.12,-408.5 182.12,-408.5 182.12,-414.5 176.12,-420.5 170.12,-420.5"/>
<text xml:space="preserve" text-anchor="middle" x="103.62" y="-397.45" font-family="Times New Roman,serif" font-size="14.00">SIMPLE_PDF_READER</text>
</g>
<!-- SIMPLE_PDF_CHROME -->
<g id="node6" class="node">
<title>SIMPLE_PDF_CHROME</title>
<path fill="none" stroke="black" d="M172.38,-276.5C172.38,-276.5 34.88,-276.5 34.88,-276.5 28.88,-276.5 22.88,-270.5 22.88,-264.5 22.88,-264.5 22.88,-252.5 22.88,-252.5 22.88,-246.5 28.88,-240.5 34.88,-240.5 34.88,-240.5 172.38,-240.5 172.38,-240.5 178.38,-240.5 184.38,-246.5 184.38,-252.5 184.38,-252.5 184.38,-264.5 184.38,-264.5 184.38,-270.5 178.38,-276.5 172.38,-276.5"/>
<text xml:space="preserve" text-anchor="middle" x="103.62" y="-253.45" font-family="Times New Roman,serif" font-size="14.00">SIMPLE_PDF_CHROME</text>
</g>
<!-- SIMPLE_PDF_CHROME&#45;&gt;SIMPLE_PDF_ENGINE -->
<g id="edge1" class="edge">
<title>SIMPLE_PDF_CHROME&#45;&gt;SIMPLE_PDF_ENGINE</title>
<path fill="none" stroke="black" d="M184.87,-258.5C247.51,-258.5 323.5,-258.5 323.5,-258.5 323.5,-258.5 323.5,-252.44 323.5,-252.44"/>
<polygon fill="none" stroke="black" points="327,-252.44 323.5,-242.44 320,-252.44 327,-252.44"/>
</g>
<!-- SIMPLE_PDF_WKHTMLTOPDF -->
<g id="node7" class="node">
<title>SIMPLE_PDF_WKHTMLTOPDF</title>
<path fill="none" stroke="black" d="M195.25,-204.5C195.25,-204.5 12,-204.5 12,-204.5 6,-204.5 0,-198.5 0,-192.5 0,-192.5 0,-180.5 0,-180.5 0,-174.5 6,-168.5 12,-168.5 12,-168.5 195.25,-168.5 195.25,-168.5 201.25,-168.5 207.25,-174.5 207.25,-180.5 207.25,-180.5 207.25,-192.5 207.25,-192.5 207.25,-198.5 201.25,-204.5 195.25,-204.5"/>
<text xml:space="preserve" text-anchor="middle" x="103.62" y="-181.45" font-family="Times New Roman,serif" font-size="14.00">SIMPLE_PDF_WKHTMLTOPDF</text>
</g>
<!-- SIMPLE_PDF_WKHTMLTOPDF&#45;&gt;SIMPLE_PDF_ENGINE -->
<g id="edge2" class="edge">
<title>SIMPLE_PDF_WKHTMLTOPDF&#45;&gt;SIMPLE_PDF_ENGINE</title>
<path fill="none" stroke="black" d="M195.5,-204.92C195.5,-213.78 195.5,-222.5 195.5,-222.5 195.5,-222.5 303.31,-222.5 303.31,-222.5"/>
<polygon fill="none" stroke="black" points="303.31,-226 313.31,-222.5 303.31,-219 303.31,-226"/>
</g>
<!-- SIMPLE_PDF_MUSIC -->
<g id="node8" class="node">
<title>SIMPLE_PDF_MUSIC</title>
<path fill="none" stroke="black" d="M164.88,-492.5C164.88,-492.5 42.38,-492.5 42.38,-492.5 36.38,-492.5 30.38,-486.5 30.38,-480.5 30.38,-480.5 30.38,-468.5 30.38,-468.5 30.38,-462.5 36.38,-456.5 42.38,-456.5 42.38,-456.5 164.88,-456.5 164.88,-456.5 170.88,-456.5 176.88,-462.5 176.88,-468.5 176.88,-468.5 176.88,-480.5 176.88,-480.5 176.88,-486.5 170.88,-492.5 164.88,-492.5"/>
<text xml:space="preserve" text-anchor="middle" x="103.62" y="-469.45" font-family="Times New Roman,serif" font-size="14.00">SIMPLE_PDF_MUSIC</text>
</g>
<!-- SMUFL_GLYPHS -->
<g id="node9" class="node">
<title>SMUFL_GLYPHS</title>
<path fill="none" stroke="black" d="M151.75,-564.5C151.75,-564.5 55.5,-564.5 55.5,-564.5 49.5,-564.5 43.5,-558.5 43.5,-552.5 43.5,-552.5 43.5,-540.5 43.5,-540.5 43.5,-534.5 49.5,-528.5 55.5,-528.5 55.5,-528.5 151.75,-528.5 151.75,-528.5 157.75,-528.5 163.75,-534.5 163.75,-540.5 163.75,-540.5 163.75,-552.5 163.75,-552.5 163.75,-558.5 157.75,-564.5 151.75,-564.5"/>
<text xml:space="preserve" text-anchor="middle" x="103.62" y="-541.45" font-family="Times New Roman,serif" font-size="14.00">SMUFL_GLYPHS</text>
</g>
<!-- LIB_TESTS -->
<g id="node10" class="node">
<title>LIB_TESTS</title>
<path fill="none" stroke="black" d="M133.75,-636.5C133.75,-636.5 73.5,-636.5 73.5,-636.5 67.5,-636.5 61.5,-630.5 61.5,-624.5 61.5,-624.5 61.5,-612.5 61.5,-612.5 61.5,-606.5 67.5,-600.5 73.5,-600.5 73.5,-600.5 133.75,-600.5 133.75,-600.5 139.75,-600.5 145.75,-606.5 145.75,-612.5 145.75,-612.5 145.75,-624.5 145.75,-624.5 145.75,-630.5 139.75,-636.5 133.75,-636.5"/>
<text xml:space="preserve" text-anchor="middle" x="103.62" y="-613.45" font-family="Times New Roman,serif" font-size="14.00">LIB_TESTS</text>
</g>
<!-- TEST_SET_BASE -->
<g id="node11" class="node">
<title>TEST_SET_BASE</title>
<path fill="none" stroke="black" d="M440,-636.5C440,-636.5 343.75,-636.5 343.75,-636.5 337.75,-636.5 331.75,-630.5 331.75,-624.5 331.75,-624.5 331.75,-612.5 331.75,-612.5 331.75,-606.5 337.75,-600.5 343.75,-600.5 343.75,-600.5 440,-600.5 440,-600.5 446,-600.5 452,-606.5 452,-612.5 452,-612.5 452,-624.5 452,-624.5 452,-630.5 446,-636.5 440,-636.5"/>
<text xml:space="preserve" text-anchor="middle" x="391.88" y="-613.45" font-family="Times New Roman,serif" font-size="14.00">TEST_SET_BASE</text>
</g>
<!-- LIB_TESTS&#45;&gt;TEST_SET_BASE -->
<g id="edge3" class="edge">
<title>LIB_TESTS&#45;&gt;TEST_SET_BASE</title>
<path fill="none" stroke="black" d="M146.16,-618.5C146.16,-618.5 319.81,-618.5 319.81,-618.5"/>
<polygon fill="none" stroke="black" points="319.81,-622 329.81,-618.5 319.81,-615 319.81,-622"/>
</g>
<!-- TEST_APP -->
<g id="node12" class="node">
<title>TEST_APP</title>
<path fill="none" stroke="black" d="M131.5,-708.5C131.5,-708.5 75.75,-708.5 75.75,-708.5 69.75,-708.5 63.75,-702.5 63.75,-696.5 63.75,-696.5 63.75,-684.5 63.75,-684.5 63.75,-678.5 69.75,-672.5 75.75,-672.5 75.75,-672.5 131.5,-672.5 131.5,-672.5 137.5,-672.5 143.5,-678.5 143.5,-684.5 143.5,-684.5 143.5,-696.5 143.5,-696.5 143.5,-702.5 137.5,-708.5 131.5,-708.5"/>
<text xml:space="preserve" text-anchor="middle" x="103.62" y="-685.45" font-family="Times New Roman,serif" font-size="14.00">TEST_APP</text>
</g>
</g>
</svg>
