<?xml version="1.0" encoding="UTF-8" standalone="no"?>
<!DOCTYPE svg PUBLIC "-//W3C//DTD SVG 1.1//EN"
 "http://www.w3.org/Graphics/SVG/1.1/DTD/svg11.dtd">
<!-- Generated by graphviz version 14.1.1 (20251213.1925)
 -->
<!-- Title: Dependencies Pages: 1 -->
<svg width="330pt" height="573pt"
 viewBox="0.00 0.00 330.00 573.00" xmlns="http://www.w3.org/2000/svg" xmlns:xlink="http://www.w3.org/1999/xlink">
<g id="graph0" class="graph" transform="scale(1 1) rotate(0) translate(4 568.5)">
<title>Dependencies</title>
<polygon fill="white" stroke="none" points="-4,4 -4,-568.5 325.5,-568.5 325.5,4 -4,4"/>
<text xml:space="preserve" text-anchor="middle" x="160.75" y="-7.2" font-family="Times New Roman,serif" font-size="14.00">simple_pdf &#45; Dependencies</text>
<!-- simple_pdf -->
<g id="node1" class="node">
<title>simple_pdf</title>
<polygon fill="lightblue" stroke="black" points="77.5,-312.5 0,-312.5 0,-276.5 77.5,-276.5 77.5,-312.5"/>
<text xml:space="preserve" text-anchor="middle" x="38.75" y="-289.45" font-family="Times New Roman,serif" font-size="14.00">simple_pdf</text>
</g>
<!-- simple_process -->
<g id="node2" class="node">
<title>simple_process</title>
<polygon fill="lightblue" stroke="black" points="321.5,-564.5 221.5,-564.5 221.5,-528.5 321.5,-528.5 321.5,-564.5"/>
<text xml:space="preserve" text-anchor="middle" x="271.5" y="-541.45" font-family="Times New Roman,serif" font-size="14.00">simple_process</text>
</g>
<!-- simple_pdf&#45;&gt;simple_process -->
<g id="edge1" class="edge">
<title>simple_pdf&#45;&gt;simple_process</title>
<path fill="none" stroke="black" stroke-dasharray="5,2" d="M15.5,-312.62C15.5,-370.4 15.5,-546.5 15.5,-546.5 15.5,-546.5 209.71,-546.5 209.71,-546.5"/>
<polygon fill="black" stroke="black" points="209.71,-550 219.71,-546.5 209.71,-543 209.71,-550"/>
</g>
<!-- simple_uuid -->
<g id="node3" class="node">
<title>simple_uuid</title>
<polygon fill="lightblue" stroke="black" points="313.25,-492.5 229.75,-492.5 229.75,-456.5 313.25,-456.5 313.25,-492.5"/>
<text xml:space="preserve" text-anchor="middle" x="271.5" y="-469.45" font-family="Times New Roman,serif" font-size="14.00">simple_uuid</text>
</g>
<!-- simple_pdf&#45;&gt;simple_uuid -->
<g id="edge2" class="edge">
<title>simple_pdf&#45;&gt;simple_uuid</title>
<path fill="none" stroke="black" stroke-dasharray="5,2" d="M30.5,-312.75C30.5,-358.51 30.5,-474.5 30.5,-474.5 30.5,-474.5 218.01,-474.5 218.01,-474.5"/>
<polygon fill="black" stroke="black" points="218.01,-478 228.01,-474.5 218.01,-471 218.01,-478"/>
</g>
<!-- simple_base64 -->
<g id="node4" class="node">
<title>simple_base64</title>
<polygon fill="lightblue" stroke="black" points="320,-420.5 223,-420.5 223,-384.5 320,-384.5 320,-420.5"/>
<text xml:space="preserve" text-anchor="middle" x="271.5" y="-397.45" font-family="Times New Roman,serif" font-size="14.00">simple_base64</text>
</g>
<!-- simple_pdf&#45;&gt;simple_base64 -->
<g id="edge3" class="edge">
<title>simple_pdf&#45;&gt;simple_base64</title>
<path fill="none" stroke="black" stroke-dasharray="5,2" d="M46.5,-312.82C46.5,-343.63 46.5,-402.5 46.5,-402.5 46.5,-402.5 211.16,-402.5 211.16,-402.5"/>
<polygon fill="black" stroke="black" points="211.16,-406 221.16,-402.5 211.16,-399 211.16,-406"/>
</g>
<!-- simple_cairo -->
<g id="node5" class="node">
<title>simple_cairo</title>
<polygon fill="lightblue" stroke="black" points="314.75,-348.5 228.25,-348.5 228.25,-312.5 314.75,-312.5 314.75,-348.5"/>
<text xml:space="preserve" text-anchor="middle" x="271.5" y="-325.45" font-family="Times New Roman,serif" font-size="14.00">simple_cairo</text>
</g>
<!-- simple_pdf&#45;&gt;simple_cairo -->
<g id="edge4" class="edge">
<title>simple_pdf&#45;&gt;simple_cairo</title>
<path fill="none" stroke="black" stroke-dasharray="5,2" d="M61.5,-312.92C61.5,-321.78 61.5,-330.5 61.5,-330.5 61.5,-330.5 216.47,-330.5 216.47,-330.5"/>
<polygon fill="black" stroke="black" points="216.47,-334 226.47,-330.5 216.47,-327 216.47,-334"/>
</g>
<!-- simple_testing -->
<g id="node6" class="node">
<title>simple_testing</title>
<polygon fill="lightblue" stroke="black" points="319.25,-276.5 223.75,-276.5 223.75,-240.5 319.25,-240.5 319.25,-276.5"/>
<text xml:space="preserve" text-anchor="middle" x="271.5" y="-253.45" font-family="Times New Roman,serif" font-size="14.00">simple_testing</text>
</g>
<!-- simple_pdf&#45;&gt;simple_testing -->
<g id="edge5" class="edge">
<title>simple_pdf&#45;&gt;simple_testing</title>
<path fill="none" stroke="black" stroke-dasharray="5,2" d="M61.5,-276.08C61.5,-267.22 61.5,-258.5 61.5,-258.5 61.5,-258.5 211.81,-258.5 211.81,-258.5"/>
<polygon fill="black" stroke="black" points="211.81,-262 221.81,-258.5 211.81,-255 211.81,-262"/>
</g>
<!-- base -->
<g id="node7" class="node">
<title>base</title>
<polygon fill="lightgray" stroke="black" points="298.5,-204.5 244.5,-204.5 244.5,-168.5 298.5,-168.5 298.5,-204.5"/>
<text xml:space="preserve" text-anchor="middle" x="271.5" y="-181.45" font-family="Times New Roman,serif" font-size="14.00">base</text>
</g>
<!-- simple_pdf&#45;&gt;base -->
<g id="edge6" class="edge">
<title>simple_pdf&#45;&gt;base</title>
<path fill="none" stroke="black" stroke-dasharray="5,2" d="M46.5,-276.18C46.5,-245.37 46.5,-186.5 46.5,-186.5 46.5,-186.5 232.85,-186.5 232.85,-186.5"/>
<polygon fill="black" stroke="black" points="232.85,-190 242.85,-186.5 232.85,-183 232.85,-190"/>
</g>
<!-- encoding -->
<g id="node8" class="node">
<title>encoding</title>
<polygon fill="lightgray" stroke="black" points="304.25,-132.5 238.75,-132.5 238.75,-96.5 304.25,-96.5 304.25,-132.5"/>
<text xml:space="preserve" text-anchor="middle" x="271.5" y="-109.45" font-family="Times New Roman,serif" font-size="14.00">encoding</text>
</g>
<!-- simple_pdf&#45;&gt;encoding -->
<g id="edge7" class="edge">
<title>simple_pdf&#45;&gt;encoding</title>
<path fill="none" stroke="black" stroke-dasharray="5,2" d="M30.5,-276.25C30.5,-230.49 30.5,-114.5 30.5,-114.5 30.5,-114.5 226.98,-114.5 226.98,-114.5"/>
<polygon fill="black" stroke="black" points="226.98,-118 236.98,-114.5 226.98,-111 226.98,-118"/>
</g>
<!-- testing -->
<g id="node9" class="node">
<title>testing</title>
<polygon fill="lightgray" stroke="black" points="298.5,-60.5 244.5,-60.5 244.5,-24.5 298.5,-24.5 298.5,-60.5"/>
<text xml:space="preserve" text-anchor="middle" x="271.5" y="-37.45" font-family="Times New Roman,serif" font-size="14.00">testing</text>
</g>
<!-- simple_pdf&#45;&gt;testing -->
<g id="edge8" class="edge">
<title>simple_pdf&#45;&gt;testing</title>
<path fill="none" stroke="black" stroke-dasharray="5,2" d="M15.5,-276.38C15.5,-218.6 15.5,-42.5 15.5,-42.5 15.5,-42.5 232.59,-42.5 232.59,-42.5"/>
<polygon fill="black" stroke="black" points="232.59,-46 242.59,-42.5 232.59,-39 232.59,-46"/>
</g>
</g>
</svg>
